# xmcd CD database file
#
# Track frame offsets:
#	150
#	23376
#	48356
#	83802
#	101444
#	134918
#	170679
#	226672
#	256086
#	299045
#
# Disc length: 4376 seconds
#
# Revision: 2
# Processed by: cddbd v1.5.2PL0 Copyright (c) Steve Scherf et al.
# Submitted via: CDex 1.51
#
DISCID=8111160a
DTITLE=John Mayall And The Bluesbreakers - 70th Birthday Concert cd1
DYEAR=2003
DGENRE=Blues
TTITLE0=Grits Ain't Groceries
TTITLE1=Jacksboro Highway
TTITLE2=Southside Story
TTITLE3=Kids Got The Blues
TTITLE4=Dirty Water
TTITLE5=Somebody's Acting Like A Child (with Mick Taylor)
TTITLE6=Blues For The Lost Days (with Mick Taylor)
TTITLE7=Walking On Sunset (with Mick Taylor)
TTITLE8=Oh, Pretty Woman (with Mick Taylor)
TTITLE9=No Big Hurry (with Eric Clapton)
EXTD=YEAR: 2003
EXTT0=
EXTT1=
EXTT2=
EXTT3=
EXTT4=
EXTT5=
EXTT6=
EXTT7=
EXTT8=
EXTT9=
PLAYORDER=
